<svg xmlns="http://www.w3.org/2000/svg" width="50.143" height="54" viewBox="0 0 50.143 54">
  <g id="calendar" transform="translate(-1463 -430)">
    <g id="Group_10" data-name="Group 10" transform="translate(1449.347 430)">
      <path id="Path_1" data-name="Path 1" d="M3759.94,10559.1c.6.234,11.2,0,11.2,0v4.406l2.8.833,1.37-.833v-4.051h17.034v3.515l1.728,1.369,1.846-.3.3-1.486.238-3.454h11.732v12.566h-48.837Z" transform="translate(-3745.073 -10553.527)" fill="#ffcf69"/>
      <g id="Group_2" data-name="Group 2" transform="translate(13.653 17.357)">
        <g id="Group_1" data-name="Group 1">
          <path id="Path_2" data-name="Path 2" d="M62.831,122.88H14.617a.965.965,0,0,0-.964.964v30.928a4.756,4.756,0,0,0,4.751,4.751H59.045a4.756,4.756,0,0,0,4.751-4.751V123.844a.965.965,0,0,0-.965-.964Zm-.964,31.892a2.826,2.826,0,0,1-2.823,2.822H18.4a2.826,2.826,0,0,1-2.823-2.822V124.809H61.868Z" transform="translate(-13.653 -122.88)" fill="#707070"/>
        </g>
      </g>
      <g id="Group_3" data-name="Group 3" transform="translate(25.224)">
        <path id="Path_3" data-name="Path 3" d="M98.466,0a2.9,2.9,0,0,0-2.893,2.893V8.679a2.893,2.893,0,1,0,5.786,0V2.893A2.9,2.9,0,0,0,98.466,0Zm.964,8.679a.964.964,0,1,1-1.929,0V2.893a.965.965,0,0,1,1.929,0Z" transform="translate(-95.573)" fill="#707070"/>
      </g>
      <g id="Group_5" data-name="Group 5" transform="translate(46.439)">
        <g id="Group_4" data-name="Group 4">
          <path id="Path_4" data-name="Path 4" d="M248.653,0a2.9,2.9,0,0,0-2.893,2.893V8.679a2.893,2.893,0,0,0,5.786,0V2.893A2.9,2.9,0,0,0,248.653,0Zm.964,8.679a.964.964,0,1,1-1.929,0V2.893a.965.965,0,0,1,1.929,0Z" transform="translate(-245.76)" fill="#707070"/>
        </g>
      </g>
      <g id="Group_7" data-name="Group 7" transform="translate(29.725 4.821)">
        <g id="Group_6" data-name="Group 6">
          <path id="Path_5" data-name="Path 5" d="M144.95,34.133H128.4a.965.965,0,0,0,0,1.929h16.55a.965.965,0,1,0,0-1.929Z" transform="translate(-127.433 -34.133)" fill="#53565d"/>
        </g>
      </g>
      <g id="Group_9" data-name="Group 9" transform="translate(13.653 4.821)">
        <g id="Group_8" data-name="Group 8">
          <path id="Path_6" data-name="Path 6" d="M62.831,34.133H51.742a.965.965,0,0,0,0,1.929H61.867V46.669H15.582V36.062H25.707a.965.965,0,1,0,0-1.929H14.617a.965.965,0,0,0-.964.964V47.633a.965.965,0,0,0,.964.964H62.832a.965.965,0,0,0,.964-.964V35.1a.965.965,0,0,0-.965-.967Z" transform="translate(-13.653 -34.133)" fill="#707070"/>
        </g>
      </g>
    </g>
    <path id="Path_7" data-name="Path 7" d="M2.112.158q0-1.187-.043-2.359T1.881-4.45a14.066,14.066,0,0,0-.417-2.015A6.36,6.36,0,0,0,.737-8.12l1.01-.645a8.054,8.054,0,0,1,.831,1.841,13.9,13.9,0,0,1,.508,2.383q.073.572.119,1.181t.073,1.214q.027.606.037,1.19T3.323.158Zm9.837-9.124q.1.53.14.971t.061.813q.006.1.006.207a3.538,3.538,0,0,1-.082.755,1.989,1.989,0,0,1-.3.694,1.493,1.493,0,0,1-.557.5,1.761,1.761,0,0,1-.825.18,1.676,1.676,0,0,1-.323-.033A1.515,1.515,0,0,1,9.727-5a1.525,1.525,0,0,1-.347-.228,1.918,1.918,0,0,1-.323-.365,1.544,1.544,0,0,1-.3.408,1.487,1.487,0,0,1-.374.262,1.694,1.694,0,0,1-.426.14,2.483,2.483,0,0,1-.463.043,2.567,2.567,0,0,1-.4-.027,2.051,2.051,0,0,1-.359-.094,19.431,19.431,0,0,1,.24,2.49q.04,1.248.04,2.49H5.8q.012-.256.015-.523t0-.511a22.616,22.616,0,0,0-.237-3.354,13.273,13.273,0,0,0-.73-2.849q-.14-.335-.259-.578a4.612,4.612,0,0,0-.259-.463l1.1-.651q.043.073.1.18t.116.228l.125.25.125.25.286.615q.164.377.286.633a1.844,1.844,0,0,0,.259.414.806.806,0,0,0,.313.228,1.235,1.235,0,0,0,.45.07.6.6,0,0,0,.46-.186,1.316,1.316,0,0,0,.271-.45,2.4,2.4,0,0,0,.131-.548q.033-.283.04-.484,0-.067-.006-.234T8.373-8.2q-.009-.183-.021-.338t-.018-.192l1.205-.146q.006.189.027.356t.033.326q.012.128.033.335t.061.444q.04.237.1.478a2.607,2.607,0,0,0,.143.435,1.128,1.128,0,0,0,.2.317.35.35,0,0,0,.265.122.4.4,0,0,0,.313-.125.762.762,0,0,0,.164-.3,1.685,1.685,0,0,0,.064-.368q.012-.192.012-.332,0-.274-.021-.648a7.471,7.471,0,0,0-.119-.9Zm2.532,2.124q-.006.061-.006.122,0,.767,1.132.883.14.012.286.012a3.672,3.672,0,0,0,.761-.085q-.012-.371-.052-.691t-.1-.593a3.026,3.026,0,0,0-.119-.374,1.736,1.736,0,0,0-.192-.365,1.1,1.1,0,0,0-.271-.277.592.592,0,0,0-.35-.11.7.7,0,0,0-.457.158,1.4,1.4,0,0,0-.329.39,2.249,2.249,0,0,0-.21.487A2.406,2.406,0,0,0,14.481-6.842ZM17.068-1.7a12.621,12.621,0,0,1-.307-1.531,11.7,11.7,0,0,1-.107-1.464,4.4,4.4,0,0,1-.724.061l-.3-.006a2.747,2.747,0,0,1-.615-.107,2.554,2.554,0,0,1-.685-.292,1.853,1.853,0,0,1-.52-.475,1.808,1.808,0,0,1-.3-.66,2.03,2.03,0,0,1-.055-.481,2.854,2.854,0,0,1,.024-.365,3.8,3.8,0,0,1,.143-.642,3.6,3.6,0,0,1,.256-.612,3,3,0,0,1,.368-.542,2.279,2.279,0,0,1,.481-.426,1.671,1.671,0,0,1,.925-.28,1.983,1.983,0,0,1,.219.012,1.741,1.741,0,0,1,1.053.53,3.382,3.382,0,0,1,.761,1.942,9.622,9.622,0,0,1,.073,1.163v.3q0,.438.015.852t.055.807q.04.393.1.74t.14.718a5.291,5.291,0,0,0,.59,1.814L17.926.3A4.974,4.974,0,0,1,17.068-1.7Zm8.376-7.2q0,.012.018.119t.037.28q.018.173.03.393.006.152.006.31v.158a3.322,3.322,0,0,1-.663,2.155V-5.49a2.075,2.075,0,0,1-1.686.749,3.18,3.18,0,0,1-.527-.04,2.316,2.316,0,0,1-.466-.131l.049.335q.073.572.119,1.178t.073,1.211q.027.606.037,1.193T22.479.122H21.268q0-.968-.018-1.927t-.1-1.863q-.079-.9-.234-1.729a8.324,8.324,0,0,0-.429-1.519q-.128-.329-.274-.627t-.329-.615L20.9-8.8q.1.158.18.32t.164.335q.082.173.167.368t.189.42q.14.323.277.581a2,2,0,0,0,.317.447,1.242,1.242,0,0,0,.414.289,1.46,1.46,0,0,0,.575.1.928.928,0,0,0,.761-.31,1.122,1.122,0,0,0,.189-.313,2.447,2.447,0,0,0,.119-.38,3.035,3.035,0,0,0,.064-.414q.018-.213.018-.414a4.519,4.519,0,0,0-.027-.505q-.027-.243-.058-.4Z" transform="translate(1474.936 471)" fill="#707070"/>
  </g>
</svg>
