<svg xmlns="http://www.w3.org/2000/svg" width="60.118" height="58" viewBox="0 0 60.118 58">
  <g id="parcel" transform="translate(-9 -17.7)">
    <path id="Path_961" data-name="Path 961" d="M10301.912-9660.408l1.557-3.414,1.8-1.617,3.475-.72,3.595,1.558,2.1,4.193,1.737-.539,2.456-3.115,1.2-6.708-2.936-7.129-5.211-2.815-7.249.3-4.372,2.517-3.234,4.911-.479,5.092.9,3.295,3.294,3.654Z" transform="translate(-10251.548 9730.927)" fill="#f9c659"/>
    <ellipse id="Ellipse_98" data-name="Ellipse 98" cx="4" cy="3.5" rx="4" ry="3.5" transform="translate(53 54.7)" fill="#fff"/>
    <path id="Path_960" data-name="Path 960" d="M10295.409-9705.155c-1.2.6-22.764,13.3-22.764,13.3l-.3,18.928,2.934-.538,3,3.594.42-17.911,22.7-13.836Z" transform="translate(-10253.313 9729.13)" fill="#fbcb65"/>
    <path id="Path_943" data-name="Path 943" d="M57.435,48.825V32.042A.856.856,0,0,0,57,31.3L33.643,17.814a.852.852,0,0,0-.852,0L9.44,31.3a.852.852,0,0,0-.44.746V61.358a.852.852,0,0,0,.426.738l23.366,13.49a.852.852,0,0,0,.852,0l12.55-7.245A12.534,12.534,0,1,0,57.435,48.825ZM46.741,27.344,25.081,39.849,20.83,37.394,42.489,24.889ZM24.212,41.3V56.914L22.606,55.1a.88.88,0,0,0-.983-.225l-1.671.682V38.869Zm9.005-21.764,7.568,4.37L19.126,36.411l-7.568-4.37Zm-.852,53.837L10.7,60.867V33.515l7.545,4.371V56.835a.868.868,0,0,0,1.2.787l2.27-.936L24.4,59.734a.854.854,0,0,0,.641.289.919.919,0,0,0,.313-.055.864.864,0,0,0,.564-.8V42.283l6.45,3.738Zm.852-28.827-6.433-3.714,21.66-12.505,6.432,3.714Zm.852,28.827V46.021L55.731,33.515V48.825A12.536,12.536,0,0,0,45.337,66.868Zm22.514-1.212a10.8,10.8,0,0,1-5.219-1.341,5.231,5.231,0,0,1,10.437,0,10.794,10.794,0,0,1-5.219,1.341Zm6.791-2.392a6.937,6.937,0,0,0-13.58,0,10.83,10.83,0,1,1,13.58,0Z" fill="#4d535b"/>
    <path id="Path_944" data-name="Path 944" d="M241.393,248.706a.853.853,0,0,0-1.371.182l-2.057,3.826a.852.852,0,0,0,.749,1.255.874.874,0,0,0,.766-.449l.469-.845V260a.852.852,0,0,0,1.7,0v-8.564l.692.749a.843.843,0,0,0,1.2.035.852.852,0,0,0,.031-1.2Z" transform="translate(-201.012 -202.659)" fill="#4d535b"/>
    <path id="Path_951" data-name="Path 951" d="M366.4,311.47a4.655,4.655,0,1,0,4.655,4.655A4.655,4.655,0,0,0,366.4,311.47Zm0,7.606a2.951,2.951,0,1,1,2.951-2.951A2.951,2.951,0,0,1,366.4,319.076Z" transform="translate(-309.822 -258.019)" fill="#4d535b"/>
  </g>
</svg>
