<svg xmlns="http://www.w3.org/2000/svg" width="51.347" height="46.188" viewBox="0 0 51.347 46.188">
  <g id="app" transform="translate(-37 -59)">
    <path id="Path_963" data-name="Path 963" d="M37.973,86.273H87.62V90l-1.832,2.542H40.041l-1.123-.533-.591-1.3-.355-1.3Z" transform="translate(0.058 1.616)" fill="#f9c659" stroke="#707070" stroke-width="1"/>
    <path id="Path_957" data-name="Path 957" d="M88.347,91.112V63.249A4.285,4.285,0,0,0,84.061,59H41.286A4.285,4.285,0,0,0,37,63.249V91.112a4.269,4.269,0,0,0,4.286,4.229h14v8.206H52.136a.821.821,0,1,0,0,1.641H73.828a.821.821,0,0,0,0-1.641H70.059V95.341h14A4.269,4.269,0,0,0,88.347,91.112ZM38.641,63.249a2.642,2.642,0,0,1,2.645-2.608H84.061a2.642,2.642,0,0,1,2.645,2.608V87.135H38.641Zm29.776,40.3H56.929V95.341H68.418ZM41.286,93.7a2.626,2.626,0,0,1-2.645-2.588V88.776H86.705v2.336A2.626,2.626,0,0,1,84.061,93.7Z" transform="translate(0)" fill="#4d535b"/>
    <path id="Path_962" data-name="Path 962" d="M61.238,82.475h0V73.491l8.1-4.906.237,9.93L62.068,82.77" transform="translate(1.436 0.568)" fill="#f9c659"/>
    <path id="Path_964" data-name="Path 964" d="M69.574,82.475h0V73.491l-8.1-4.906-.237,9.93,7.506,4.255" transform="translate(-7.038 0.568)" fill="#ffcf69"/>
    <path id="Path_958" data-name="Path 958" d="M196.643,104.472l-8.206-4.738a.821.821,0,0,0-.821,0l-8.206,4.738a.821.821,0,0,0-.41.711v9.476a.821.821,0,0,0,.41.711l8.206,4.738a.821.821,0,0,0,.821,0l8.206-4.738a.821.821,0,0,0,.41-.711v-9.476a.821.821,0,0,0-.41-.711Zm-8.616-3.08,2.381,1.375-6.565,3.79-2.381-1.375Zm-.821,16.582-6.565-3.79V106.6l6.565,3.79Zm.821-9-2.542-1.468,6.565-3.79,2.542,1.468Zm7.385,5.212-6.565,3.79v-7.581l6.565-3.79Z" transform="translate(-125.353 -35.862)" fill="#4d535b"/>
  </g>
</svg>
