<svg xmlns="http://www.w3.org/2000/svg" width="61.169" height="45.269" viewBox="0 0 61.169 45.269">
  <g id="Group_782" data-name="Group 782" transform="translate(-406.998 -679)">
    <g id="Group_782-2" data-name="Group 782" transform="translate(240 541.624)">
      <g id="Group_782-3" data-name="Group 782" transform="translate(189.248 137.376)">
        <path id="Path_1059" data-name="Path 1059" d="M225.824,174.832a7.012,7.012,0,0,0-5.486-4.9l-6.6-1.2v-.521a10.078,10.078,0,0,0,4.84-6.77,4.03,4.03,0,0,0,3.208-3.94v-9.936a6.309,6.309,0,0,0-4.507-6.053l-.5-.5a12.387,12.387,0,0,0-21.145,8.759V157.5a4.03,4.03,0,0,0,3.208,3.94,10.078,10.078,0,0,0,4.84,6.77v.521l-6.6,1.2a7.014,7.014,0,0,0-5.486,4.905l-2.343,7.812h38.919Zm-7.057-15.6v-3.465a1.994,1.994,0,0,1,0,3.465Zm-20.119,0a1.994,1.994,0,0,1,0-3.465Zm0-6.762v1.149a3.99,3.99,0,0,0-1.006.416v-4.268a10.375,10.375,0,0,1,17.711-7.336l.887.888.271.066a4.3,4.3,0,0,1,3.262,4.178v6.471a3.954,3.954,0,0,0-1.006-.416v-1.149h-3.19a8.75,8.75,0,0,1-6.966-3.482l-.8-1.068-2,2a8.655,8.655,0,0,1-6.159,2.55Zm2.012,7.042v-5.076a10.648,10.648,0,0,0,6.575-3.093l.391-.391a10.776,10.776,0,0,0,7.951,3.531h1.178v5.03a8.048,8.048,0,0,1-16.1,0Zm5.115,9.621a10.022,10.022,0,0,0,5.865,0l-2.932,2.2Zm1.4,3.565-2.053,2.052-1.332-3.995.641-.116Zm5.806-2.058.64.117-1.332,3.995-2.053-2.052Zm-21.031,10,1.567-5.222a5,5,0,0,1,3.918-3.5l4.356-.792,2.452,7.356,4.462-4.465,4.464,4.463,2.452-7.356,4.356.792a5.01,5.01,0,0,1,3.918,3.5l1.566,5.223Z" transform="translate(-189.248 -137.376)" fill="#707070"/>
      </g>
    </g>
    <path id="Path_1060" data-name="Path 1060" d="M232.307,208.156a1.106,1.106,0,0,0-1.517.379l-6.634,11.057a1.106,1.106,0,1,0,1.9,1.138l6.634-11.057A1.106,1.106,0,0,0,232.307,208.156Z" transform="translate(190.739 489)" fill="#707070"/>
    <path id="Path_1061" data-name="Path 1061" d="M297.967,208.413a1.106,1.106,0,1,0-1.727,1.382l3.87,4.837-3.87,4.837a1.106,1.106,0,1,0,1.727,1.382l4.423-5.528a1.106,1.106,0,0,0,0-1.382Z" transform="translate(128.69 489)" fill="#707070"/>
    <path id="Path_1062" data-name="Path 1062" d="M172.663,220.852a1.106,1.106,0,0,0,1.727-1.382l-3.87-4.837,3.87-4.837a1.106,1.106,0,1,0-1.727-1.382l-4.423,5.528a1.106,1.106,0,0,0,0,1.382Z" transform="translate(239 489)" fill="#707070"/>
    <path id="Path_1063" data-name="Path 1063" d="M-10992.662,7633.865h0l10.769-3.683,4.241,2.678,4.854-2.678,9.6,2.009,3.627,7.31.614,2.734h-36.325" transform="translate(11426 -6919)" fill="#ffcf69"/>
  </g>
</svg>
